<svg width="96" height="96" viewBox="0 0 96 96" fill="none" xmlns="http://www.w3.org/2000/svg" role="img" aria-label="DockLive">
  <path d="M25 12H56L76 32V78H25C18.4 78 13 72.6 13 66V24C13 17.4 18.4 12 25 12Z" fill="white" stroke="#8657C8" stroke-width="5" stroke-linejoin="round"/>
  <path d="M56 12V32H76" stroke="#8657C8" stroke-width="5" stroke-linejoin="round"/>
  <path d="M30 36H44" stroke="#CDB7EC" stroke-width="4" stroke-linecap="round"/>
  <path d="M30 48H55" stroke="#CDB7EC" stroke-width="4" stroke-linecap="round"/>
  <path d="M18 64C34 61 49 52 63 42L84 50C66 61 49 69 28 72L18 64Z" fill="#7D4DC3"/>
  <path d="M27 74C48 71 66 64 84 52" stroke="#A783DD" stroke-width="5" stroke-linecap="round"/>
  <path d="M33 84C54 81 69 73 84 62" stroke="#C5A9EA" stroke-width="5" stroke-linecap="round"/>
</svg>
